<svg id="Capa_1" height="512" width="512" xmlns="http://www.w3.org/2000/svg"><path d="M0 256c0 141.385 114.615 256 256 256l35.088-259.272L256 0C114.615 0 0 114.615 0 256z" fill="#badb47"/><path d="M256 0v512c141.385 0 256-114.615 256-256S397.385 0 256 0z" fill="#1fc979"/><path d="M70.787 256c0 102.291 82.923 185.213 185.213 185.213l25.386-187.581L256 70.787C153.71 70.787 70.787 153.71 70.787 256z" fill="#edf5ff"/><path d="M256 70.787v370.427c102.29 0 185.213-82.923 185.213-185.213C441.213 153.71 358.29 70.787 256 70.787z" fill="#d6e8fd"/><path d="M238.772 303.005c0 9.966 6.147 16.299 15.275 16.299.668 0 1.317-.041 1.952-.112v-32.374a17.522 17.522 0 00-1.952-.112c-9.127-.001-15.275 6.333-15.275 16.299z" fill="none"/><path d="M210.964 159.476H169.63v24.189c0 33.104 26.932 60.036 60.036 60.036H256l15.258-28.864L256 179.876c-11.01-12.495-27.113-20.4-45.036-20.4z" fill="#1fc979"/><path d="M301.036 159.476c-17.923 0-34.026 7.905-45.036 20.4v63.826h26.333c33.104 0 60.036-26.932 60.036-60.036v-24.189h-41.333zM144.321 352.781h47.574v-22.165h-25.408v-11.931h23.29V296.52h-23.29v-11.93h25.408v-22.166h-47.574z" fill="#19a995"/><path d="M326.186 263.852c-25.085 0-45.493 20.408-45.493 45.493 0 25.084 20.408 45.492 45.493 45.492s45.493-20.408 45.493-45.492c0-25.085-20.408-45.493-45.493-45.493zm0 68.819c-12.863 0-23.328-10.465-23.328-23.326 0-12.863 10.465-23.328 23.328-23.328s23.328 10.465 23.328 23.328c0 12.862-10.465 23.326-23.328 23.326z" fill="#0d7579"/><path d="M225.807 309.345c0 12.862 10.465 23.326 23.328 23.326 2.524 0 4.812-.415 6.865-1.209v-44.418a23.356 23.356 0 00-6.865-1.026c-12.863-.001-23.328 10.464-23.328 23.327z" fill="none"/><path d="M249.135 332.671c-12.863 0-23.328-10.465-23.328-23.326 0-12.863 10.465-23.328 23.328-23.328 2.352 0 4.661.349 6.865 1.026l6.931-13.234-6.931-9.44a45.825 45.825 0 00-6.865-.517c-25.085 0-45.493 20.407-45.493 45.493 0 25.084 20.408 45.491 45.493 45.491a43.42 43.42 0 006.865-.544l6.931-13.688-6.931-9.142c-2.053.795-4.341 1.209-6.865 1.209z" fill="#19a995"/><path d="M262.324 326.915a16.576 16.576 0 01-1.676 1.731 15.14 15.14 0 01-4.648 2.816v22.831c7.345-1.175 13.959-4.256 19.39-9.094a38.987 38.987 0 003.912-4.034zm-.155-36.92l12.411-18.366a45.196 45.196 0 00-18.579-7.259v22.674a23.091 23.091 0 016.168 2.951z" fill="#0d7579"/></svg>